<svg width="60" height="60" viewBox="0 0 60 60" fill="none" xmlns="http://www.w3.org/2000/svg">
<path d="M12.9472 7.44967C12.9834 5.49938 14.8535 3.89714 16.787 4.00516C23.2431 4.01416 29.6992 4.00816 36.1553 4.00816C37.968 3.97816 39.7504 5.35836 39.9075 7.20363C39.9891 9.82901 39.8924 12.4604 39.9407 15.0888C41.2096 15.0168 42.699 14.8577 43.6899 15.8359C44.8228 16.9251 44.7866 18.5903 44.8682 20.0365C45.2398 24.2161 48.0313 27.5916 49.4149 31.4442C50.7291 35.1827 51.6203 39.3203 50.4693 43.2179C49.6143 46.2994 47.1219 48.7507 44.1612 49.8999C43.2881 50.1459 43.1854 51.1481 42.7141 51.7902C41.3607 53.8995 38.7897 54.7726 36.4091 55.0937C31.672 55.7327 26.5512 54.6436 22.8383 51.5561C21.5573 50.524 20.515 49.2428 19.503 47.9616C18.0166 47.8296 16.4365 48.1776 15.0257 47.5926C14.1254 47.2085 13.5816 46.3594 13.0559 45.5853C12.0771 45.4562 11.0439 45.4412 10.1678 44.9372C8.44573 44.022 7.59378 41.7867 8.18893 39.9564C8.45479 39.0173 9.16777 38.3152 9.82335 37.6281C8.94421 36.4339 8.03486 35.1047 8.12852 33.5535C8.04393 32.2213 8.96536 31.1621 9.83544 30.268C8.80826 29.0078 7.90496 27.4566 8.15873 25.7733C8.21613 24.6152 9.06505 23.7601 9.8596 23.0099C9.11037 22.0198 8.30374 20.9756 8.17081 19.7035C7.9835 18.3773 8.37624 16.9041 9.48499 16.0669C10.4276 15.2478 11.7387 15.2478 12.917 15.1458C12.9804 12.5804 12.8988 10.015 12.9472 7.44967ZM15.5302 7.07161C15.2251 8.67084 15.4577 10.3181 15.3943 11.9383C15.4517 13.3755 15.2311 14.8487 15.5151 16.268C16.4577 17.4921 17.7024 18.6803 17.7115 20.3456C17.9773 21.8548 16.9562 23.088 16.0317 24.1471C16.9985 25.3563 17.8988 26.8025 17.6994 28.4167C17.6722 29.6529 16.7961 30.5921 15.9985 31.4412C17.0015 32.7104 17.9652 34.2286 17.6903 35.9208C17.6389 37.085 16.7538 37.9161 16.0076 38.7082C16.4003 39.9804 16.9532 41.3996 16.3217 42.6898C15.9773 43.545 15.0861 44.4181 15.7719 45.3452C17.5211 45.5253 19.2794 45.4382 21.0316 45.4532C25.8745 45.4352 30.7143 45.4562 35.5541 45.4622C36.1039 45.4112 36.7746 45.5163 37.1885 45.0632C37.4936 44.4721 37.4423 43.791 37.4665 43.1519C37.4453 39.5454 37.4513 35.9418 37.4604 32.3383C37.4876 30.9821 37.116 29.6739 36.826 28.3627C36.1281 25.2363 35.9378 21.8878 37.0042 18.8183C37.7504 16.907 37.3758 14.8307 37.4544 12.8385C37.3758 10.7922 37.6719 8.71285 37.2036 6.69656C35.5601 6.3425 33.8744 6.50152 32.2097 6.47752C27.3729 6.47452 22.5331 6.48953 17.6963 6.46552C16.9562 6.49853 16.0287 6.39651 15.5302 7.07161ZM11.5001 17.7562C10.2252 18.0802 10.4699 19.7935 11.1315 20.5946C11.917 21.8278 14.0922 22.8239 15.1556 21.3957C15.6873 19.3704 13.5 17.3271 11.5001 17.7562ZM39.7836 18.5573C38.3003 21.4797 38.5722 24.9182 39.2942 28.0147C39.551 29.2419 39.9951 30.451 39.9498 31.7232C39.9196 35.9328 39.9438 40.1425 39.9317 44.3491C39.9981 46.2094 38.3093 47.8836 36.4544 47.9076C31.8865 48.0096 27.3065 47.7906 22.7416 48.0216C25.2823 51.0131 29.1917 52.7023 33.104 52.7803C35.4574 52.8283 38.0737 52.7143 39.977 51.1571C40.9105 50.431 41.1099 49.2158 41.5117 48.1776C42.7594 47.7996 44.0253 47.4065 45.1068 46.6564C47.14 45.2822 48.3364 42.8729 48.4451 40.4575C48.6838 36.968 47.6989 33.5115 46.276 30.352C44.8349 27.4896 43.1884 24.6542 42.554 21.4797C42.2398 20.1445 42.5661 18.6983 41.9316 17.4381C41.0465 17.3631 40.1552 17.7052 39.7836 18.5573ZM11.1738 25.2033C10.5726 25.4973 10.5122 26.3194 10.6572 26.9015C11.0288 28.2667 12.343 29.3529 13.7719 29.4369C14.5091 29.4909 15.3067 28.8938 15.2523 28.1197C15.2674 26.2024 13.0287 24.3751 11.1738 25.2033ZM11.4789 32.4193C10.0288 32.8604 10.6179 34.7867 11.4185 35.5938C12.2553 36.5719 14.2644 37.3821 15.1133 36.0439C15.7779 34.0756 13.4366 31.8432 11.4789 32.4193ZM11.4699 39.6054C10.2221 40.1695 10.1647 42.1857 11.4064 42.7978C12.4215 43.4369 13.8746 42.7708 14.1073 41.6157C14.5121 40.2025 12.7538 38.8223 11.4699 39.6054Z" fill="#222222"/>
<path d="M15.6079 7.08811C16.1112 6.41534 17.0476 6.517 17.7948 6.48411C22.6782 6.50803 27.5645 6.49308 32.4478 6.49607C34.1285 6.51999 35.8305 6.36152 37.4898 6.71435C37.9625 8.72368 37.6636 10.7958 37.7429 12.835C37.6636 14.8204 38.0418 16.8896 37.2884 18.7943C36.2117 21.8531 36.4039 25.19 37.1085 28.3057C37.4013 29.6124 37.7765 30.916 37.749 32.2676C37.7399 35.8586 37.7338 39.4497 37.7551 43.0438C37.7307 43.6807 37.7826 44.3594 37.4745 44.9485C37.0566 45.4 36.3795 45.2953 35.8244 45.3462C30.938 45.3402 26.0516 45.3193 21.1622 45.3372C19.3931 45.3222 17.6179 45.409 15.8519 45.2296C15.1595 44.3056 16.0593 43.4355 16.407 42.5833C17.0445 41.2976 16.4863 39.8833 16.0898 38.6155C16.8432 37.8261 17.7369 36.9979 17.7887 35.8377C18.0663 34.1513 17.0933 32.6383 16.0807 31.3735C16.8859 30.5273 17.7704 29.5914 17.7979 28.3595C17.9992 26.7509 17.0903 25.3096 16.1142 24.1046C17.0476 23.0491 18.0785 21.8202 17.8101 20.3162C17.8009 18.6567 16.5443 17.4726 15.5926 16.2527C15.3059 14.8384 15.5286 13.3703 15.4706 11.938C15.5347 10.3234 15.2998 8.68182 15.6079 7.08811ZM24.6516 41.9405C23.8281 42.368 23.9836 43.89 24.9566 44.0664C25.9998 44.2099 27.0643 44.195 28.1136 44.0933C29.3702 44.0634 29.3794 41.8747 28.1593 41.7969C27.0063 41.6534 25.7619 41.5398 24.6516 41.9405Z" fill="#A4C519"/>
<path d="M11.4535 18.1118C13.5885 17.7086 15.9235 19.6288 15.3558 21.5322C14.2206 22.8744 11.8985 21.9382 11.06 20.7793C10.3537 20.0264 10.0925 18.4163 11.4535 18.1118Z" fill="#EE7E01"/>
<path d="M39.8573 18.3663C40.2274 17.5094 41.115 17.1654 41.9966 17.2409C42.6284 18.5081 42.3035 19.9624 42.6164 21.305C43.2482 24.4972 44.8881 27.3484 46.3233 30.2268C47.7404 33.4039 48.7213 36.8796 48.4836 40.3886C48.3753 42.8174 47.1838 45.2402 45.1589 46.6221C44.0817 47.3764 42.821 47.7716 41.5783 48.1518C41.1782 49.1957 40.9796 50.4177 40.0499 51.1479C38.1543 52.7138 35.5487 52.8284 33.2048 52.7801C29.3084 52.7017 25.4149 51.003 22.8845 47.9949C27.4309 47.7626 31.9922 47.9828 36.5416 47.8803C38.389 47.8561 40.0709 46.1725 40.0047 44.3019C40.0168 40.0718 39.9927 35.8387 40.0228 31.6056C40.0679 30.3264 39.6256 29.1104 39.3699 27.8764C38.6508 24.7627 38.38 21.305 39.8573 18.3663Z" fill="#EE7E01"/>
<path d="M11.1007 24.9018C13.074 23.9767 15.4555 26.0178 15.4394 28.1595C15.4973 29.0242 14.6488 29.6912 13.8646 29.6308C12.3445 29.537 10.9464 28.3237 10.5511 26.7987C10.3968 26.1485 10.4611 25.2302 11.1007 24.9018Z" fill="#EE7E01"/>
<path d="M11.4286 32.2189C13.5241 31.5723 16.0303 34.0779 15.3188 36.2872C14.4101 37.7892 12.2597 36.8799 11.3639 35.782C10.507 34.8761 9.87636 32.714 11.4286 32.2189Z" fill="#EE7E01"/>
<path d="M11.353 39.7627C12.5126 39.0565 14.1006 40.3011 13.7349 41.5754C13.5248 42.6171 12.2124 43.2178 11.2957 42.6415C10.1743 42.0895 10.2261 40.2713 11.353 39.7627Z" fill="#EE7E01"/>
<path d="M23.5964 41.5756C25.0814 41.0471 26.7459 41.1969 28.2881 41.3863C29.92 41.4888 29.9077 44.3762 28.2269 44.4156C26.8235 44.5497 25.3996 44.5695 24.0044 44.3801C22.7029 44.1474 22.4949 42.1397 23.5964 41.5756Z" fill="#A4C519"/>
<path d="M25.474 41.2115L24.8827 40.012L24.2914 41.2115L23.4758 40.7144L24.1589 39.5689L22.8845 39.623L22.8845 38.6288L24.1589 38.672L23.4758 37.5481L24.2914 37.051L24.8827 38.2289L25.474 37.051L26.2896 37.5481L25.6066 38.672L26.8809 38.6288V39.623L25.6066 39.5689L26.2896 40.7144L25.474 41.2115Z" fill="black"/>
<path d="M28.9301 35.3006C28.9981 35.1781 29.0559 35.0449 29.1034 34.9008C29.1442 34.7783 29.1816 34.6378 29.2156 34.4793C29.2496 34.3136 29.2666 34.1443 29.2666 33.9714C29.2666 33.7121 29.219 33.4887 29.1238 33.3014C29.0219 33.1069 28.8893 32.9448 28.7262 32.8151C28.5563 32.6782 28.366 32.5774 28.1553 32.5125C27.9378 32.4405 27.7135 32.4009 27.4824 32.3937C27.5708 32.5089 27.6659 32.6818 27.7679 32.9124C27.8698 33.1357 27.9208 33.4491 27.9208 33.8525C27.9208 34.1695 27.8664 34.4577 27.7577 34.7171C27.6422 34.9764 27.4892 35.1997 27.2989 35.3871C27.1018 35.5744 26.8775 35.7221 26.6261 35.8301C26.3678 35.931 26.0925 35.9814 25.8003 35.9814C25.5012 35.9814 25.2158 35.931 24.9439 35.8301C24.672 35.7221 24.4342 35.5672 24.2303 35.3655C24.0264 35.1637 23.8632 34.9188 23.7409 34.6306C23.6186 34.3352 23.5574 33.9966 23.5574 33.6148C23.5574 33.2546 23.6186 32.9232 23.7409 32.6206C23.8632 32.3108 24.0535 32.0442 24.3118 31.8209C24.5701 31.5976 24.8997 31.4247 25.3007 31.3022C25.6949 31.1725 26.1673 31.1077 26.7178 31.1077C27.2412 31.1077 27.7237 31.1653 28.1655 31.2806C28.6005 31.3959 28.9811 31.5724 29.3073 31.8101C29.6268 32.0478 29.8783 32.3468 30.0618 32.707C30.2385 33.0673 30.3268 33.4959 30.3268 33.993C30.3268 34.1947 30.3098 34.3893 30.2759 34.5766C30.2487 34.7639 30.2113 34.9368 30.1637 35.0953C30.1229 35.2538 30.0788 35.3979 30.0312 35.5275C29.9836 35.65 29.9394 35.7473 29.8986 35.8193L28.9301 35.3006ZM26.4833 32.3828C26.1231 32.3828 25.8241 32.4153 25.5862 32.4801C25.3415 32.5449 25.1478 32.635 25.0051 32.7503C24.8623 32.8583 24.7604 32.988 24.6992 33.1393C24.6381 33.2906 24.6075 33.4491 24.6075 33.6148C24.6075 33.9534 24.7162 34.2344 24.9337 34.4577C25.1512 34.6738 25.4435 34.7819 25.8105 34.7819C26.1095 34.7819 26.3576 34.6846 26.5547 34.4901C26.7518 34.2884 26.8504 34.0182 26.8504 33.6796C26.8504 33.3266 26.8096 33.0565 26.728 32.8691C26.6465 32.6746 26.5649 32.5125 26.4833 32.3828Z" fill="black"/>
<path d="M30.3268 27.5964C30.3268 28.0359 30.2419 28.4213 30.072 28.7527C29.902 29.0841 29.6676 29.3615 29.3685 29.5848C29.0627 29.8081 28.699 29.9774 28.2776 30.0927C27.8495 30.2008 27.3805 30.2548 26.8707 30.2548C26.3746 30.2548 25.9226 30.2008 25.5148 30.0927C25.107 29.9774 24.7604 29.8081 24.4749 29.5848C24.1827 29.3615 23.9584 29.0841 23.8021 28.7527C23.6389 28.4141 23.5574 28.0251 23.5574 27.5856C23.5574 27.1461 23.6389 26.7607 23.8021 26.4293C23.9584 26.0979 24.1827 25.8205 24.4749 25.5972C24.7604 25.3738 25.107 25.2081 25.5148 25.1001C25.9226 24.9848 26.3746 24.9272 26.8707 24.9272C27.3805 24.9272 27.8495 24.9848 28.2776 25.1001C28.699 25.2081 29.0627 25.3738 29.3685 25.5972C29.6676 25.8205 29.902 26.1015 30.072 26.4401C30.2419 26.7715 30.3268 27.1569 30.3268 27.5964ZM29.2258 27.5856C29.2258 27.3623 29.1646 27.1677 29.0423 27.002C28.9199 26.8291 28.7534 26.6886 28.5427 26.5806C28.332 26.4653 28.0839 26.3789 27.7985 26.3212C27.513 26.2636 27.2038 26.2348 26.8707 26.2348C26.5513 26.2348 26.2556 26.2636 25.9838 26.3212C25.7119 26.3789 25.4808 26.4653 25.2905 26.5806C25.0934 26.6958 24.9405 26.8399 24.8318 27.0128C24.723 27.1785 24.6686 27.3731 24.6686 27.5964C24.6686 27.8197 24.723 28.0178 24.8318 28.1908C24.9405 28.3565 25.0934 28.4969 25.2905 28.6122C25.4808 28.7203 25.7119 28.8031 25.9838 28.8608C26.2556 28.9184 26.5513 28.9472 26.8707 28.9472C27.2038 28.9472 27.513 28.9184 27.7985 28.8608C28.0839 28.8031 28.332 28.7167 28.5427 28.6014C28.7534 28.4861 28.9199 28.3456 29.0423 28.1799C29.1646 28.007 29.2258 27.8089 29.2258 27.5856Z" fill="black"/>
<path d="M29.1136 23.2314V22.0643H25.056L25.7085 23.3719L24.7706 23.9014L23.7409 21.9022V20.7891H29.1136V19.6652H30.1637V23.2314H29.1136Z" fill="black"/>
<path d="M28.6243 17.0185V18.0235H27.6761V16.7483L26.2285 16.3377V17.3643L25.2803 17.3643L25.2803 16.0675L23.7511 15.6352L23.7511 14.4898L25.2803 14.922V13.5928L23.7511 13.1605L23.7511 12.0151L25.2803 12.4473L25.2803 11.4423L26.2285 11.4423V12.7175L27.6761 13.1281V12.1015L28.6243 12.1015V13.3983L30.1637 13.8306L30.1637 14.976L28.6243 14.5438V15.873L30.1637 16.3052V17.4507L28.6243 17.0185ZM27.6761 14.2736L26.2285 13.863L26.2285 15.1922L27.6761 15.6028V14.2736Z" fill="black"/>
</svg>
