<svg width="51" height="51" viewBox="0 0 51 51" fill="none" xmlns="http://www.w3.org/2000/svg">
<path d="M13.3485 0.138244C15.0539 -0.0277194 16.7826 -0.0704062 18.4972 0.157201C18.5206 1.10082 18.544 2.05394 18.5626 3.00704C19.0486 3.18723 19.5438 3.3769 20.039 3.56657C20.0717 4.48649 20.0951 5.40641 20.1325 6.33581C21.1697 6.46384 22.2536 6.50175 23.2488 6.90006C24.1458 7.43115 24.557 8.46015 25.0196 9.35635C24.9401 14.1266 25.0476 18.8969 24.9681 23.6624C24.9214 24.6108 24.3 25.1656 23.3609 24.8858C22.5947 24.3737 22.7629 23.449 22.7442 22.6666C22.7348 18.5412 22.7722 14.4206 22.7395 10.3C22.7489 9.64086 22.3844 8.58342 21.5808 8.72093C20.4362 8.43168 20.0951 9.89692 20.1091 10.7505C20.0577 18.5887 20.1652 26.4364 20.0531 34.2794C19.5531 34.4643 19.0532 34.654 18.5626 34.8484C18.5486 36.1761 18.6 37.5133 18.4972 38.8458C18.1468 39.3199 17.5488 39.4954 17.0629 39.7941C16.9087 41.2641 17.3432 42.8905 16.563 44.2372C15.9883 44.2894 15.4089 44.2514 14.8436 44.2419C14.7689 42.7056 14.7735 41.1693 14.7408 39.6424C14.3998 39.576 13.7176 39.4432 13.3766 39.3768C13.1897 37.8784 13.1196 36.3705 13.0962 34.8674C12.587 34.6303 12.0824 34.4026 11.5825 34.1703C11.5498 23.9896 11.517 13.8042 11.6011 3.61873C12.1011 3.40535 12.6103 3.1967 13.1243 2.9928C13.199 2.03495 13.2644 1.08661 13.3485 0.138244ZM13.8157 32.4158C15.2034 32.4396 16.591 32.4443 17.9833 32.3827C17.9786 23.4159 18.0394 14.4396 17.9506 5.4728C16.5817 5.4159 15.2174 5.41588 13.8531 5.42536C13.7176 14.4206 13.8017 23.4206 13.8157 32.4158Z" fill="#222222"/>
<path d="M25.063 42.5289C31.7127 42.2473 38.3817 42.3147 45.0362 42.4983C45.3645 43.5755 45.3935 45.3994 44.0993 45.1669C37.7394 45.1791 31.3746 45.3382 25.0195 45.075C25.0195 44.2181 25.034 43.3735 25.063 42.5289Z" fill="#222222"/>
<path d="M29.4219 16.4798C35.638 16.2765 41.8589 16.4231 48.0797 16.3947C49.3362 16.3096 50.7113 17.2505 50.8061 18.5602C51.0716 24.3996 50.844 30.239 50.8772 36.0879C51.2233 40.0313 50.7113 43.9841 50.8677 47.9369C51.1143 49.5256 49.763 51.1333 48.1224 50.982C32.722 51.0103 17.3216 50.9725 1.9259 51.0009C1.09139 50.32 -0.0228578 49.6202 0.0340403 48.405C-0.0133748 38.7783 0.0293046 29.1515 0.0103385 19.5295C-0.0844916 18.3474 0.475004 17.085 1.60822 16.598C3.37206 16.2103 5.19756 16.3852 6.9851 16.4987C7.00881 16.929 7.05148 17.7848 7.07045 18.2151C6.7907 18.3333 6.22171 18.5602 5.93722 18.6784C4.71391 18.6737 3.49536 18.6832 2.27679 18.7115C2.23886 28.7024 2.22935 38.6932 2.28151 48.6793C17.7388 48.7644 33.1961 48.7455 48.6535 48.6888C48.7957 38.6979 48.6866 28.7071 48.7056 18.7163C47.5534 18.6784 46.4107 18.669 45.2633 18.6737C41.93 18.6879 38.592 18.721 35.2634 18.565C33.2862 18.7352 31.309 18.6122 29.346 18.3806C29.3603 17.7422 29.384 17.1087 29.4219 16.4798Z" fill="#222222"/>
<path d="M43.6141 29.5086H45.185V30.658H43.6141V31.7427H45.185V32.8921H43.6141V36.4408H41.7741L39.5124 32.8921H37.0469V36.4408H35.2142V32.8921H33.6797V31.7427H35.2142V30.658H33.6797V29.5086H35.2142V25.9814H37.0469L39.2942 29.5086H41.7887V25.9814H43.6141V29.5086ZM40.7123 31.7427H41.7887V30.658H40.0214L40.7123 31.7427ZM37.0469 31.7427H38.7778L38.0869 30.658H37.0469V31.7427ZM41.7887 33.4309V32.8921H41.4469L41.7887 33.4309ZM37.0469 29.5086H37.3596L37.0469 29.0201V29.5086Z" fill="#222222"/>
<rect x="25.0195" y="27.9043" width="5.77359" height="1.92453" fill="#222222"/>
<rect x="25.0195" y="32.7158" width="5.77359" height="1.92453" fill="#222222"/>
</svg>
