<svg width="60" height="60" viewBox="0 0 60 60" fill="none" xmlns="http://www.w3.org/2000/svg">
<path d="M7.11278 8.68142C7.41472 7.77832 8.56212 8.02812 9.29502 8.04184C17.8977 8.70612 26.5691 11.4785 33.2915 17.0206C36.1298 19.3593 38.5207 22.2168 40.368 25.3955C41.4139 24.6187 42.1934 23.5536 43.1953 22.7301C43.7855 22.1812 44.9356 22.6588 44.9054 23.4795C45.0015 26.65 44.8423 29.8286 44.9905 33.0018C47.5406 34.1986 50.0303 35.5162 52.5666 36.7404C53.0937 37.0259 53.8019 37.3141 53.876 37.9976C53.9556 38.5439 53.5795 39.0435 53.0745 39.2137C50.3377 40.2375 47.6065 41.2779 44.8588 42.2743C44.0243 45.4639 43.4506 48.714 42.6601 51.9146C42.5969 52.384 42.0781 52.5322 41.6884 52.642C41.0707 52.6969 40.6755 52.1177 40.3351 51.6978C38.8748 49.6775 37.4529 47.6352 36.0008 45.6122C35.7565 45.3596 35.5588 44.8518 35.1251 44.9644C33.3711 45.1071 31.6281 45.3432 29.8768 45.5161C28.3478 45.6451 26.8326 46.0102 25.2899 45.8729C25.0511 45.3377 24.6037 44.7091 25.0813 44.1628C26.5856 41.9367 28.2161 39.7956 29.767 37.5996C29.9042 37.3279 30.2446 37.0342 30.0771 36.7075C29.6846 35.766 29.2784 34.8025 28.6909 33.9653C23.9037 32.6642 18.8008 32.7218 13.9368 33.6222C13.0501 33.9049 12.309 32.8508 12.7262 32.0713C13.558 30.4106 14.6834 28.9118 15.5426 27.2676C15.4273 26.7707 14.9277 26.466 14.6093 26.09C13.6321 25.2034 12.8031 24.1603 11.7655 23.3423C10.4232 23.216 9.10562 23.6854 7.76608 23.5893C7.20336 23.4932 6.992 22.8756 7.00023 22.376C7.32963 21.5443 8.00489 20.9212 8.55388 20.2322C9.7699 18.7445 11.0847 17.3335 12.2074 15.7717C10.6812 13.9463 9.16052 12.1181 7.63157 10.2982C7.29669 9.84528 6.76965 9.27433 7.11278 8.68142ZM10.8651 10.4794C11.9576 12.1428 13.407 13.5318 14.5873 15.1293C14.8728 15.4999 14.9551 16.0407 14.6312 16.4195C13.4838 18.0198 12.0674 19.4142 10.9228 21.02C13.4948 20.891 16.0778 20.7785 18.6471 21.0338C23.9229 21.4235 29.314 22.8125 33.5633 26.0927C34.7491 26.9601 35.6384 28.146 36.7117 29.1341C37.3101 28.555 37.9525 28.0142 38.4795 27.3664C38.7842 27.1029 38.5097 26.7433 38.3752 26.477C35.2624 21.0145 30.2556 16.7763 24.5625 14.1851C20.2447 12.2114 15.5975 10.9048 10.8651 10.4794ZM15.0073 23.2187C15.9241 24.5171 17.3982 25.3653 18.175 26.7488C17.9911 28.3161 16.6104 29.4553 16.1053 30.9376C19.8329 30.556 23.5963 30.6411 27.2965 31.2286C26.9561 30.1443 26.2699 29.2 25.9734 28.102C26.0173 27.4982 26.4785 26.8915 27.14 26.9986C28.8968 27.2154 30.585 27.8056 32.3363 28.0636C27.5079 24.196 21.0297 23.1995 15.0073 23.2187ZM39.2591 29.8012C38.6908 30.3255 38.2269 31.0145 37.5187 31.3548C36.4208 31.4536 35.364 31.0419 34.2989 30.8498C32.63 30.5313 30.9995 30.0263 29.314 29.8039C30.2034 32.0219 31.4441 34.0778 32.4323 36.2491C32.5586 36.5922 32.7645 36.9957 32.5641 37.3553C31.4277 39.5074 29.6681 41.2614 28.5235 43.4052C30.9912 43.1527 33.4562 42.8452 35.9239 42.6037C36.3961 42.5159 36.7886 42.8343 37.0494 43.1884C38.4246 44.9918 39.6132 46.9325 41.0515 48.6865C41.6225 46.3561 42.0919 44.0009 42.6299 41.6622C42.7589 41.2202 42.844 40.6465 43.3491 40.4791C45.4407 39.5458 47.6669 38.9419 49.7503 37.9894C47.6614 36.6773 45.3199 35.8236 43.1926 34.5774C42.6628 34.2755 42.7287 33.581 42.693 33.0622C42.6848 30.858 42.7122 28.6565 42.6985 26.4523C41.4578 27.4652 40.4119 28.6895 39.2591 29.8012Z" fill="#222222"/>
<path d="M10.865 10.4794C15.5973 10.9048 20.2445 12.2114 24.5624 14.1851C30.2554 16.7763 35.2622 21.0145 38.375 26.477C38.5095 26.7433 38.784 27.1029 38.4793 27.3664C37.9523 28.0142 37.31 28.555 36.7116 29.1341C35.6383 28.146 34.7489 26.9601 33.5631 26.0927C29.3139 22.8125 23.9228 21.4235 18.647 21.0338C16.0777 20.7785 13.4947 20.891 10.9226 21.02C12.0673 19.4142 13.4837 18.0198 14.6311 16.4195C14.955 16.0407 14.8726 15.4999 14.5872 15.1293C13.4068 13.5318 11.9575 12.1428 10.865 10.4794Z" fill="#EE7E01"/>
<path d="M39.259 29.8012C40.4119 28.6895 41.4577 27.4652 42.6984 26.4523C42.7122 28.6566 42.6847 30.858 42.6929 33.0622C42.7286 33.581 42.6628 34.2755 43.1925 34.5774C45.3199 35.8237 47.6613 36.6773 49.7503 37.9894C47.6668 38.9419 45.4407 39.5458 43.349 40.4791C42.8439 40.6466 42.7588 41.2203 42.6298 41.6622C42.0918 44.0009 41.6224 46.3561 41.0515 48.6866C39.6131 46.9325 38.4245 44.9918 37.0493 43.1884C36.7885 42.8343 36.396 42.5159 35.9239 42.6037C33.4561 42.8453 30.9912 43.1527 28.5234 43.4052C29.6681 41.2614 31.4276 39.5074 32.564 37.3553C32.7644 36.9958 32.5585 36.5922 32.4323 36.2491C31.4441 34.0779 30.2034 32.0219 29.314 29.8039C30.9994 30.0263 32.6299 30.5314 34.2988 30.8498C35.3639 31.0419 36.4207 31.4537 37.5187 31.3549C38.2269 31.0145 38.6908 30.3255 39.259 29.8012Z" fill="#A4C519"/>
<path d="M15.0071 23.2187C21.0295 23.1995 27.5076 24.196 32.336 28.0636C30.5848 27.8056 28.8966 27.2154 27.1398 26.9986C26.4783 26.8915 26.0171 27.4981 25.9732 28.102C26.2697 29.2 26.9559 30.1443 27.2963 31.2286C23.5961 30.6411 19.8327 30.556 16.1051 30.9376C16.6101 29.4553 17.9909 28.3161 18.1748 26.7488C17.3979 25.3653 15.9239 24.5171 15.0071 23.2187Z" fill="#EE7E01"/>
</svg>
