<svg width="58" height="58" viewBox="0 0 58 58" fill="none" xmlns="http://www.w3.org/2000/svg">
<path d="M19.3834 5.51944C19.9787 5.28015 20.637 5.3998 21.2638 5.40366C21.4806 6.16398 21.792 7.26392 20.7434 7.55724C17.4005 8.93895 14.2862 10.9343 11.8855 13.6244C8.05376 17.8583 5.84222 23.5626 6.15759 29.2361C6.75679 28.6379 7.35207 28.0396 7.95127 27.4414C8.29029 27.4607 8.97226 27.5032 9.31128 27.5225C9.48473 27.9509 9.66214 28.387 9.83953 28.8231C9.70156 29.0161 9.4256 29.3982 9.28763 29.5873C8.0498 30.7838 6.75284 31.93 5.63722 33.2423C5.13263 33.2731 4.62806 33.2886 4.12741 33.2963C2.85016 31.8374 1.3955 30.5406 0.0197058 29.1705C0.0157637 28.8617 0.00394212 28.2481 0 27.9393C0.532186 27.6884 1.11564 27.233 1.74243 27.5418C2.40471 28.0358 2.9763 28.6417 3.5755 29.2168C3.55185 23.8675 5.11292 18.4796 8.32181 14.1184C11.0971 10.3168 14.9761 7.31025 19.3834 5.51944Z" fill="#EB7824"/>
<path d="M52.3323 24.9739C52.7126 24.5264 53.3344 24.775 53.8453 24.7521C55.1523 26.1672 56.5782 27.4828 58 28.7947C57.9723 29.3263 57.9367 29.8655 57.901 30.4048C57.3426 30.4277 56.7643 30.6113 56.2217 30.4545C55.5286 29.942 54.986 29.2765 54.4394 28.634C54.5622 35.1932 52.0828 41.825 47.3102 46.5408C44.6289 49.2524 41.2742 51.3521 37.6225 52.6295C37.3492 52.5186 36.7947 52.293 36.5214 52.182C36.5135 51.6237 36.5214 51.0729 36.5531 50.5222C43.0248 48.2083 48.439 43.1331 50.6451 36.7728C51.5481 34.2026 52.0076 31.4757 51.9323 28.7602C50.9659 29.594 50.1025 30.9708 48.5975 30.4622C48.447 30.0185 48.3044 29.5787 48.1657 29.1465C49.3896 27.6128 50.8867 26.3087 52.3323 24.9739Z" fill="#EB7824"/>
<path d="M5.4376 36.6372C6.03484 36.5739 6.63592 36.5344 7.24087 36.5186C8.79369 40.3718 11.0054 44.0272 14.2151 46.6501C18.4304 50.2976 23.9867 52.0936 29.4697 51.9868C28.5719 51.2233 27.1309 50.4083 27.443 49.0118C27.7435 48.2088 28.6374 48.3749 29.304 48.4026C30.4638 49.7714 31.8009 50.9661 33.0031 52.2954C33.4654 52.7068 33.2381 53.3714 33.2574 53.9213C31.8548 55.2268 30.5525 56.6431 29.1961 57.9961C28.7453 57.9921 28.2983 57.9921 27.8591 58C27.6857 57.4541 27.1655 56.8528 27.5277 56.2792C28.0556 55.6066 28.676 55.0251 29.277 54.4238C20.5458 54.7205 11.8146 49.9771 7.34106 42.239C6.44327 40.5023 5.04843 38.7221 5.4376 36.6372Z" fill="#EB7824"/>
<path d="M27.6961 0.402775C28.2669 -0.338609 29.6265 0.000855982 29.7335 0.952949C29.9634 2.16258 28.5998 2.77909 27.9062 3.5595C32.544 3.65315 37.2373 4.56622 41.2687 6.92304C46.5051 9.79493 50.5721 14.5983 52.6294 20.1314C52.5263 20.3655 52.3202 20.8337 52.2171 21.0679C51.9595 21.1693 51.4481 21.38 51.1905 21.4815C49.9934 20.9625 49.815 19.5812 49.2283 18.5784C45.3833 10.8095 36.6982 5.73684 27.9339 6.08412C28.7386 7.00109 30.1299 7.77759 29.682 9.20183C29.4362 9.35011 28.9526 9.64667 28.7108 9.79495C27.2283 9.36963 26.4355 7.96099 25.3137 7.03231C24.6517 6.2441 23.3912 5.61976 23.6687 4.43355C24.8935 2.9859 26.3206 1.70995 27.6961 0.402775Z" fill="#EB7824"/>
<path d="M22.8358 12.9544C26.7193 11.4149 31.1359 11.4865 35.0592 12.8589C38.7039 14.3386 41.9428 16.9282 43.8845 20.3849C46.0252 23.961 46.63 28.3246 45.874 32.3979C44.8951 37.2867 41.6762 41.6662 37.3073 44.0609C33.0657 46.4475 27.7817 46.8215 23.2138 45.1906C18.4829 43.5398 14.6631 39.7091 12.8606 35.0511C11.2332 30.5045 11.4799 25.2776 13.7797 21.0055C15.6777 17.33 18.9643 14.4063 22.8358 12.9544ZM24.2802 17.8431C22.5732 20.8503 21.853 24.3428 21.7098 27.7717C23.7311 27.7757 25.7524 27.7637 27.7737 27.7797C27.7538 23.3364 27.8294 18.8932 27.7299 14.454C26.2657 15.2137 25.0879 16.415 24.2802 17.8431ZM30.2526 14.4818C30.2049 18.9091 30.2526 23.3404 30.2287 27.7717C32.2381 27.7757 34.2514 27.7717 36.2608 27.7717C36.229 25.751 35.9345 23.7422 35.3695 21.805C34.5021 18.937 33.1095 15.8422 30.2526 14.4818ZM14.293 27.7558C15.9523 27.7797 17.6154 27.7797 19.2747 27.7518C19.2428 23.5632 20.4723 19.4621 22.4698 15.8064C17.9417 18.0937 14.8103 22.7199 14.293 27.7558ZM35.5008 15.9099C37.7211 19.4581 38.5766 23.6467 38.8631 27.7757C40.4706 27.7717 42.082 27.7797 43.6975 27.7598C43.2001 22.7795 40.1164 17.9863 35.5008 15.9099ZM14.2891 30.2181C14.7944 35.3296 18.0173 40.0035 22.6289 42.2708C20.4087 38.7186 19.2946 34.5221 19.2985 30.3454C17.6353 30.1226 15.9562 30.2539 14.2891 30.2181ZM21.7018 30.226C21.9724 34.9358 23.1024 40.2819 27.1013 43.2733C27.2764 43.2931 27.6265 43.3289 27.8016 43.3449C27.7459 38.9693 27.7936 34.5937 27.7737 30.2181C25.7484 30.2379 23.7231 30.226 21.7018 30.226ZM30.2327 30.222C30.2566 34.6533 30.1929 39.0846 30.2646 43.5159C31.8601 42.7442 33.0816 41.3838 33.9013 39.8325C35.465 36.8889 36.2051 33.5435 36.2688 30.222C34.2554 30.222 32.2421 30.238 30.2327 30.222ZM38.867 30.226C38.6124 34.4107 37.6057 38.5396 35.5605 42.2231C40.009 39.8444 43.2757 35.3097 43.6816 30.23C42.0741 30.23 40.4706 30.2141 38.867 30.226Z" fill="#EB7824"/>
</svg>
