<svg width="46" height="46" viewBox="0 0 46 46" fill="none" xmlns="http://www.w3.org/2000/svg">
<path d="M43.9093 25.0908C43.282 25.0908 42.8639 25.509 42.8639 26.1362V39.7272C42.8639 40.3545 42.4457 40.7726 41.8185 40.7726H4.18204C3.55475 40.7726 3.13662 40.3544 3.13662 39.7272V26.1362C3.13662 25.509 2.7184 25.0908 2.0912 25.0908C1.464 25.0908 1.04578 25.509 1.04578 26.1362V39.7272C1.04578 41.5045 2.40484 42.8635 4.18213 42.8635H41.8185C43.5958 42.8635 44.9548 41.5045 44.9548 39.7272V26.1362C44.9548 25.509 44.5366 25.0908 43.9093 25.0908Z" fill="#014086"/>
<path d="M42.8636 10.4551H3.13636C1.35907 10.4551 0 11.8141 0 13.5914V20.2824C0 21.7459 1.04542 23.0005 2.40458 23.3141L18.8182 26.9732V30.3186C18.8182 30.9459 19.2364 31.364 19.8636 31.364H26.1364C26.7636 31.364 27.1818 30.9458 27.1818 30.3186V26.9732L43.5954 23.3141C44.9546 23.0005 46 21.7459 46 20.2823V13.5913C46 11.8141 44.6409 10.4551 42.8636 10.4551ZM25.0909 29.2732H20.9092V25.0914H25.0909V29.2732ZM43.9091 20.2823C43.9091 20.805 43.5954 21.2232 43.0727 21.3277L27.1818 24.8823V24.0459C27.1818 23.4186 26.7636 23.0005 26.1364 23.0005H19.8636C19.2364 23.0005 18.8182 23.4187 18.8182 24.0459V24.8823L2.92729 21.3278C2.40458 21.2232 2.09093 20.8051 2.09093 20.2824V13.5914C2.09093 12.9641 2.50916 12.546 3.13636 12.546H42.8636C43.4909 12.546 43.9091 12.9642 43.9091 13.5914V20.2823Z" fill="#014086"/>
<path d="M28.2262 3.13574H17.7717C15.9944 3.13574 14.6353 4.49481 14.6353 6.2721V7.31752C14.6353 7.94481 15.0535 8.36294 15.6807 8.36294C16.3079 8.36294 16.7262 7.94472 16.7262 7.31752V6.2721C16.7262 5.64481 17.1444 5.22667 17.7716 5.22667H28.2262C28.8534 5.22667 29.2716 5.6449 29.2716 6.2721V7.31752C29.2716 7.94481 29.6898 8.36294 30.317 8.36294C30.9443 8.36294 31.3624 7.94472 31.3624 7.31752V6.2721C31.3626 4.49481 30.0035 3.13574 28.2262 3.13574Z" fill="#014086"/>
</svg>
