<svg width="56" height="50" viewBox="0 0 56 50" fill="none" xmlns="http://www.w3.org/2000/svg">
<path d="M37.9925 17.4453C38.5131 17.4659 39.0388 17.4917 39.5697 17.5175C39.5903 18.0638 39.6161 18.6102 39.6522 19.1617C41.6211 19.5224 42.8426 21.3161 42.6932 23.2695C42.1365 23.2592 41.5902 23.2438 41.0438 23.2283C40.8944 22.5634 40.7397 21.8934 40.6006 21.2336C39.4615 20.6873 38.2554 20.6048 37.0854 21.1099C36.7504 21.8161 36.2401 22.5995 36.7452 23.3829C37.7245 24.5684 39.4409 23.9396 40.6933 24.5787C42.4406 25.1921 43.1261 27.5166 42.2344 29.0783C41.7603 30.1504 40.5439 30.4957 39.5903 30.9802C39.5903 31.3616 39.5903 32.1142 39.5903 32.4956C39.044 32.511 38.5028 32.5265 37.9668 32.5471C37.9616 32.1708 37.9565 31.4132 37.9565 31.0318C36.0958 30.4081 34.498 28.8258 34.8536 26.7126C35.3639 26.728 35.8742 26.7486 36.3896 26.7693C36.1783 29.0938 38.8585 29.9391 40.5387 28.7433C40.7243 28.3413 40.915 27.9444 41.116 27.5527C40.9047 27.1146 40.6985 26.6765 40.4975 26.2435C38.5956 25.7075 35.8845 25.9703 35.0804 23.687C34.1733 21.4759 36.0236 19.6513 37.9461 18.9503C37.9565 18.5741 37.9822 17.8216 37.9925 17.4453Z" fill="#014086"/>
<path d="M14.9019 18.4139C16.4379 17.8933 18.0666 18.1871 19.6129 18.5118C19.5201 18.8726 19.3294 19.5942 19.2315 19.9498C16.8657 19.6921 14.0309 19.7385 12.6238 22.0167C12.6495 22.1301 12.7062 22.3568 12.732 22.4702C13.8299 22.5269 14.9329 22.4908 16.0359 22.5115C16.0359 22.9186 16.0307 23.733 16.0255 24.1402C14.5978 24.1299 13.1701 24.135 11.7424 24.1299C11.7373 24.7072 11.7321 25.2844 11.7321 25.8617C13.165 25.8823 14.5927 25.8771 16.0307 25.8771C16.0204 26.3101 15.9998 27.176 15.9895 27.609C14.7731 27.6038 13.5567 27.6038 12.3403 27.6502C13.6907 29.8768 16.4894 30.8252 18.9325 29.949C19.1902 30.4077 19.4531 30.8664 19.7211 31.3303C16.608 32.7529 12.6032 31.4798 10.9899 28.4439C10.7425 27.5677 9.85598 27.5883 9.11893 27.4956C9.13439 26.6864 9.0313 25.7534 10.0982 25.6452C10.0879 25.1401 10.0828 24.6298 10.0828 24.1299C9.86628 24.1453 9.42818 24.1866 9.2117 24.2072C9.16016 23.666 9.11377 23.1248 9.06738 22.5888C9.41787 22.5527 10.1137 22.4805 10.459 22.4393C11.4229 20.656 12.8712 18.9757 14.9019 18.4139Z" fill="#014086"/>
<path d="M17.9649 0.0855631C18.3617 0.0804089 19.1658 0.0700961 19.5678 0.0649419C19.5781 1.14217 19.5833 2.21424 19.6039 3.29147C21.5934 1.66789 23.954 0.642216 26.4487 0.0855631C30.9019 -0.445319 35.3345 1.53389 38.2003 4.9202C37.6539 5.38923 36.8498 6.28606 36.2726 5.34284C32.4481 0.874154 25.0467 0.487585 20.7894 4.54909C21.9027 4.60579 23.0211 4.63157 24.1396 4.65734C24.1396 5.04391 24.1396 5.82218 24.1396 6.20875C22.0676 6.25513 20.0008 6.24998 17.9391 6.24483C17.9442 4.19346 17.9443 2.13693 17.9649 0.0855631Z" fill="#014086"/>
<path d="M5.81507 12.4872C10.2116 8.55459 16.845 7.50314 22.324 9.56482C24.365 10.2297 26.0092 11.6471 27.8441 12.7037C34.0652 6.7764 44.9509 7.30728 50.703 13.6366C55.2696 18.3063 56.5427 25.7851 53.8264 31.7176C50.8422 38.7479 42.5336 43.0259 35.0961 41.1034C32.2819 40.5879 29.9058 38.9695 27.6225 37.3614C23.7878 40.5055 18.6336 42.2734 13.6907 41.2528C6.86137 40.222 1.17628 34.3874 0.217603 27.5633C-0.735924 22.0225 1.50101 16.0849 5.81507 12.4872ZM9.99512 11.5853C6.08308 13.6882 2.91325 17.358 2.02157 21.7751C0.789719 26.9087 2.65555 32.6402 6.65521 36.0883C11.9331 41.0724 21.123 41.1394 26.3597 36.078C25.9164 35.1554 25.2361 34.3617 24.5042 33.6607C23.1486 34.5214 21.8549 35.5265 20.3035 36.0162C15.7833 37.6191 10.325 36.0729 7.41802 32.2278C4.48012 28.7024 4.13481 23.3575 6.33565 19.3733C7.85614 16.7137 10.4023 14.6056 13.3866 13.8222C17.2522 12.678 21.6281 13.8067 24.53 16.5797C25.1742 15.6828 25.8185 14.7809 26.4473 13.8686C21.9786 9.98747 15.3503 9.0597 9.99512 11.5853ZM35.3074 10.5647C28.2667 12.0852 23.0713 19.3372 23.9888 26.4912C24.3547 31.0114 27.04 35.2018 30.8593 37.6037C35.0342 40.3096 40.6214 40.557 45.1055 38.4592C51.5328 35.511 55.1717 27.6457 53.0172 20.8628C51.0225 13.4717 42.7346 8.58553 35.3074 10.5647ZM7.95406 19.8887C5.26357 24.1254 6.53665 30.2795 10.6755 33.1195C14.2164 35.7688 19.5355 35.5987 22.8909 32.7226C23.2311 32.3464 23.9218 31.9907 23.5197 31.4032C21.757 27.1509 21.8446 22.2493 23.7465 18.0538C21.7415 16.1055 19.015 14.9458 16.2111 15.0077C12.8712 15.1262 9.67041 17.0178 7.95406 19.8887Z" fill="#014086"/>
<path d="M33.9917 14.4089C38.0532 12.4967 43.1765 13.3265 46.4907 16.3417C49.3048 18.8363 50.8202 22.7484 50.2996 26.4903C49.8151 30.0622 47.6555 33.4588 44.4341 35.1545C41.4705 36.9018 37.6976 37.0822 34.5175 35.8503C31.0332 34.5051 28.317 31.361 27.4304 27.7428C26.8789 25.2739 27.1315 22.6711 28.0438 20.3207C29.3426 17.79 31.3115 15.517 33.9917 14.4089ZM30.3786 19.6043C28.1726 22.7948 28.286 27.248 30.3838 30.4642C32.7393 34.2525 37.811 35.9689 42.0014 34.4639C46.8051 32.897 49.9182 27.2583 48.3719 22.3824C47.5627 19.1817 45.0269 16.718 42.0271 15.4964C37.7698 14.1099 32.7753 15.7851 30.3786 19.6043Z" fill="#014086"/>
<path d="M17.7091 45.5408C16.8895 44.7832 18.7038 43.6235 19.1213 44.6904C22.8839 49.1024 30.3626 49.7054 34.486 45.4842C33.4345 45.4275 32.3882 45.4017 31.3419 45.3759C31.3419 44.8502 31.3471 44.3296 31.3574 43.809C33.4036 43.809 35.4498 43.7987 37.5012 43.8142C37.4703 45.8604 37.5064 47.9066 37.4857 49.9528C36.96 49.9631 36.4394 49.9683 35.924 49.9786C35.8982 48.8911 35.8879 47.8035 35.8931 46.7212C33.5015 48.6179 30.5997 50.0456 27.4866 49.9941C23.7756 50.1178 20.08 48.3808 17.7091 45.5408Z" fill="#014086"/>
</svg>
