<svg width="42" height="52" viewBox="0 0 42 52" fill="none" xmlns="http://www.w3.org/2000/svg">
<path d="M17.8658 1.81787C21.8868 -0.617719 27.7732 -0.822767 31.3491 2.53804C32.0293 3.00816 32.2443 4.00339 31.6242 4.62354C29.9538 6.87908 28.2684 9.13463 26.5579 11.3652C26.5429 12.3204 26.5329 13.2806 26.5279 14.2409C28.9785 16.3564 31.4491 18.4369 33.9247 20.5274C36.7804 22.8829 38.4408 26.5588 38.4508 30.2497C38.4858 33.0104 38.4758 35.776 38.3358 38.5367C39.9962 41.3824 42.5718 44.3731 41.8866 47.889C39.9311 50.2695 36.5353 50.2845 33.7397 50.7897C26.2228 51.2548 18.491 52.195 11.1292 50.0595C8.07846 50.7747 4.84271 52.05 1.71195 50.9847C0.381629 50.5596 -0.0284914 48.9692 0.00151588 47.7239C0.306589 43.5779 2.92724 39.927 2.80722 35.716C2.86223 32.4352 2.38211 28.9544 3.92748 25.9187C5.41784 23.038 6.54812 19.7822 9.12374 17.6517C10.5441 16.3714 12.2695 15.4862 13.6798 14.2058C14.415 10.85 11.9994 8.01937 10.9242 5.02364C10.6791 4.0334 9.34379 2.71808 10.5891 1.9829C13.0097 1.89288 15.5553 2.94814 17.8658 1.81787ZM21.6667 2.16295C20.0914 2.54304 18.8211 3.69832 17.2307 4.0084C15.6753 4.21845 14.1049 4.08842 12.5496 4.05341C13.4898 6.02888 14.2049 8.12438 15.2902 10.0348C18.596 10.2449 21.9218 10.0749 25.2376 10.1049C26.783 7.93935 28.4434 5.85884 29.9838 3.68831C27.6382 1.83287 24.4974 1.62782 21.6667 2.16295ZM15.5303 11.9753C15.5253 12.4454 15.5253 13.3856 15.5253 13.8608C18.601 13.8458 21.6868 13.8608 24.7675 13.8458C24.7675 13.3806 24.7675 12.4504 24.7675 11.9853C21.6868 11.9553 18.606 11.9753 15.5303 11.9753ZM15.2452 15.7162C13.5448 16.4314 12.1445 17.6917 10.6691 18.7669C8.08347 20.7324 7.08325 23.9332 5.6229 26.6939C3.39236 31.255 5.62789 36.5513 3.71243 41.1824C2.85223 43.723 1.81698 46.2686 1.80697 48.9943C4.04251 49.9345 6.45307 49.3193 8.72362 48.8642C7.29828 47.874 5.37781 46.9387 5.40782 44.9183C7.25326 44.7532 8.21852 46.5686 9.74389 47.2538C15.0752 50.1945 21.3717 49.4194 27.2181 49.4044C31.5591 49.1243 36.0452 49.0993 40.1162 47.3639C40.3312 44.8883 38.7159 42.8478 37.6606 40.7572C36.9104 42.4176 36.1202 44.1181 34.6549 45.2784C34.4548 44.9933 34.0547 44.4131 33.8547 44.1281C34.9449 41.7525 36.5703 39.4719 36.5253 36.7313C36.5003 33.5805 36.8604 30.3547 36.1903 27.259C34.8299 22.3778 29.9638 20.0673 26.6129 16.7315C25.3726 15.2861 23.3772 15.6512 21.6968 15.6312C19.5412 15.6912 17.3857 15.5162 15.2452 15.7162Z" fill="#014086"/>
<path d="M25.8154 30.0584H28V31.7067H25.8154V33.2624H28V34.9107H25.8154V40H23.2566L20.1113 34.9107H16.6827V40H14.134V34.9107H12V33.2624H14.134V31.7067H12V30.0584H14.134V25H16.6827L19.8078 30.0584H23.2769V25H25.8154V30.0584ZM21.78 33.2624H23.2769V31.7067H20.8192L21.78 33.2624ZM16.6827 33.2624H19.0898L18.129 31.7067H16.6827V33.2624ZM23.2769 35.6834V34.9107H22.8015L23.2769 35.6834ZM16.6827 30.0584H17.1176L16.6827 29.3578V30.0584Z" fill="#014086"/>
</svg>
