<svg width="51" height="51" viewBox="0 0 51 51" fill="none" xmlns="http://www.w3.org/2000/svg">
<path d="M17.9229 5.59589C18.7831 2.36185 22.3332 1.00837 25.2893 0.353014C29.481 -0.259602 34.0434 -0.245341 37.8739 1.79196C39.6514 2.69427 41.3338 4.39914 41.1864 6.53618C41.1294 9.94118 41.3433 13.3605 41.0391 16.7607C40.407 16.756 39.7844 16.7512 39.1571 16.7465C38.948 14.6902 39.043 12.6243 39.0098 10.568C37.104 11.2566 35.2601 12.1875 33.2307 12.4866C29.058 13.0898 24.5859 12.8001 20.8172 10.7675C20.6461 10.739 20.3039 10.682 20.1328 10.6488C20.1328 12.0023 19.9665 13.3794 20.2231 14.7234C21.3114 15.8441 22.8417 16.7322 23.1934 18.3849C23.5308 20.2132 23.2885 22.1033 23.3455 23.9601C23.5689 23.9649 24.0109 23.9649 24.2295 23.9649C29.8327 18.2091 39.87 18.0144 45.7393 23.471C49.7362 27.0232 51.7418 32.6887 50.7485 37.9601C49.6411 44.9885 43.1682 50.6778 36.0632 50.9627C31.3962 51.2192 26.6818 49.2579 23.5451 45.8006C22.0956 47.7809 20.1375 49.3956 17.7423 50.0747C13.2702 51.4329 8.24678 51.3522 3.941 49.4573C1.98772 48.5835 -0.0558633 46.9024 0.00116678 44.5754C0.0296818 36.1745 0.0011662 27.7688 0.0154237 19.3679C-0.0986365 17.1169 1.82138 15.4927 3.67486 14.5999C8.06618 12.4819 13.1276 12.7431 17.7898 13.6739C17.9609 10.9812 17.7138 8.27906 17.9229 5.59589ZM21.7201 4.11422C20.3324 4.77907 19.3439 6.87336 20.8552 7.94188C23.8588 10.4588 28.0648 10.6915 31.805 10.4873C34.5899 9.98868 37.6458 9.22408 39.2094 6.6169C38.4585 4.0952 35.7828 3.10267 33.4541 2.60877C29.5428 1.73971 25.2275 2.10065 21.7201 4.11422ZM1.99247 19.4106C3.22812 22.2552 6.5929 23.0388 9.37788 23.4187C13.1229 23.7132 17.4429 23.49 20.3799 20.8638C21.6156 19.9235 21.0548 18.1901 19.9094 17.4588C16.7823 15.165 12.6286 15.0416 8.91688 15.4025C6.25548 15.8014 3.08555 16.6467 1.99247 19.4106ZM25.6362 25.608C22.5138 28.9798 20.8172 33.8807 22.0908 38.4112C23.2457 43.2599 27.2948 47.3155 32.1852 48.3841C36.6525 49.4193 41.5714 48.0279 44.7983 44.7606C48.7286 40.9139 49.8597 34.6311 47.5595 29.6447C45.7203 25.6318 41.8708 22.5972 37.4842 21.9181C33.2165 21.03 28.7871 22.7254 25.6362 25.608ZM2.19682 23.5517C2.07326 24.9812 2.10177 26.4723 2.98099 27.6833C6.8923 30.1955 11.8634 30.5707 16.3023 29.4784C17.8231 29.0178 19.4294 28.4527 20.5177 27.2417C21.4255 26.2349 20.9788 24.7864 21.05 23.5707C15.1902 26.5151 8.05192 26.5103 2.19682 23.5517ZM2.21108 29.9866C2.19682 30.7891 2.12553 31.5965 2.23484 32.4038C2.86692 33.8712 4.42576 34.6453 5.82775 35.2294C10.2713 36.6684 15.3518 36.4926 19.5102 34.2511C19.6338 33.0781 19.8001 31.9099 19.9902 30.7559C18.1985 31.1643 16.4686 31.8434 14.6342 32.0571C10.3997 32.7837 6.01784 31.9004 2.21108 29.9866ZM2.39644 36.1127C2.23485 37.1195 1.90217 38.2593 2.58178 39.1616C3.75565 40.667 5.68042 41.2986 7.45786 41.7877C11.7161 42.6948 16.4258 42.3291 20.1423 39.9072C19.9237 38.9241 19.7098 37.9506 19.5055 36.9771C13.9736 38.7817 7.60044 39.0476 2.39644 36.1127ZM2.19207 42.2484C2.20632 43.5876 1.84513 45.2307 3.03801 46.2138C5.72793 48.4268 9.42064 48.821 12.7854 48.669C15.8223 48.5265 19.1871 47.7667 21.1071 45.1975C21.0786 44.2097 21.0548 43.2219 21.0168 42.2436C17.8468 43.7586 14.3728 44.6656 10.8369 44.4139C7.79053 44.5232 4.94852 43.3787 2.19207 42.2484Z" fill="#222222"/>
<path d="M40.225 33.0467H42V34.3654H40.225V35.6099H42V36.9286H40.225V41H38.146L35.5904 36.9286H32.8047V41H30.7339V36.9286H29V35.6099H30.7339V34.3654H29V33.0467H30.7339V29H32.8047L35.3439 33.0467H38.1625V29H40.225V33.0467ZM36.9463 35.6099H38.1625V34.3654H36.1656L36.9463 35.6099ZM32.8047 35.6099H34.7604L33.9798 34.3654H32.8047V35.6099ZM38.1625 37.5467V36.9286H37.7762L38.1625 37.5467ZM32.8047 33.0467H33.158L32.8047 32.4863V33.0467Z" fill="#222222"/>
</svg>
