<svg width="58" height="51" viewBox="0 0 58 51" fill="none" xmlns="http://www.w3.org/2000/svg">
<path d="M23.2082 0.214094C28.6599 -0.223452 34.3627 -0.158069 39.4677 2.03972C41.1258 2.8092 43.0552 4.07154 42.9145 6.16874C42.819 14.6732 42.8592 23.1626 42.8291 31.6671C47.3562 31.0385 52.3607 30.9379 56.4155 33.367C58.5107 34.6494 57.8977 37.325 57.9681 39.387C57.8424 42.0576 58.2143 44.7734 57.742 47.4137C56.4054 49.7825 53.4158 50.3307 50.9588 50.7884C46.8588 51.2158 42.3869 51.1656 38.7441 49.003C37.3322 48.2385 36.9654 46.6644 37.0559 45.1757C31.8203 46.6141 26.2682 46.6945 20.9371 45.749C19.8619 48.1681 17.1235 49.0583 14.7167 49.4808C10.9332 50.0843 6.92365 50.0189 3.30094 48.6912C1.68304 48.1027 -0.150916 46.8806 0.00986987 44.9192C0.0249435 37.6972 -0.0052044 30.4752 0.0249429 23.2531C-0.0353517 21.7595 1.20572 20.6782 2.43171 20.0746C5.63737 18.5307 9.29525 18.4602 12.7823 18.5608C12.8677 14.2105 12.6717 9.87028 12.7873 5.52499C12.8777 4.01119 14.2746 3.05563 15.4704 2.38171C17.8772 1.15959 20.5452 0.561113 23.2082 0.214094ZM21.5451 2.85446C19.3795 3.3423 17.0331 3.79996 15.3096 5.28862C14.8072 7.35565 15.1639 9.5987 15.1287 11.7311C15.8623 14.125 14.777 16.5039 15.0785 18.9431C17.2139 19.5969 20.2287 20.1652 20.7864 22.7251C20.9221 29.6051 20.7512 36.5002 20.8668 43.3853C26.228 44.4163 31.8303 44.3006 37.081 42.7466C37.071 41.2328 37.081 39.719 37.1212 38.2052C33.9005 38.9947 30.5742 39.5832 27.248 39.3317C26.2581 38.8187 26.5998 36.9529 27.8258 37.1138C30.8707 37.0685 33.9055 36.6561 36.8599 35.9017C37.3875 34.1113 38.8898 33.0149 40.5429 32.346C40.548 31.5011 40.563 30.6613 40.5731 29.8214C36.458 31.999 31.7047 32.3863 27.1324 32.502C26.7455 31.7425 26.6752 30.9429 27.0219 30.1583C30.7199 30.0527 34.5135 29.8767 37.9904 28.4735C38.8848 28.0812 39.945 27.7543 40.4575 26.8491C40.6082 25.5364 40.5429 24.2137 40.568 22.8961C36.4077 25.0436 31.6545 25.4509 27.052 25.5012C26.6601 24.772 26.3988 23.3738 27.5494 23.2481C31.5841 23.0369 35.7897 22.7804 39.4325 20.8441C41.3016 19.959 40.3018 17.5349 40.5781 15.9255C36.2871 17.9976 31.358 18.8173 26.635 18.2943C26.8108 17.6355 26.4943 16.6296 27.3133 16.3178C31.7349 15.9406 36.7544 16.016 40.3972 13.1091C40.6836 11.6959 40.5178 10.2374 40.553 8.8091C37.9653 10.514 34.8149 10.9666 31.8103 11.364C30.2577 11.4645 28.6548 11.8015 27.1173 11.4293C26.439 10.8862 26.8108 10.0765 26.8812 9.37238C31.6143 8.96501 37.1212 9.17623 40.8092 5.69095C39.6988 4.69516 38.3824 3.9458 36.9453 3.55352C31.966 2.09503 26.635 1.8989 21.5451 2.85446ZM6.18505 21.2716C4.8033 21.5985 3.24066 21.8802 2.29102 23.0319C1.39163 23.8868 1.76344 25.2095 1.67802 26.3009C1.87398 32.7383 1.42679 39.2009 1.88905 45.6233L2.2458 45.0198C2.8588 46.433 4.63747 46.6241 5.93883 47.0667C10.1092 47.8764 14.7167 47.806 18.5002 45.6485C18.5454 44.9594 18.5907 44.2704 18.6359 43.5865C15.8975 44.8136 12.8325 45.3467 9.84292 45.1154C9.11938 44.6879 9.39573 43.7625 9.34046 43.0785C12.4657 42.8119 15.7518 42.7365 18.4952 41.0014C18.5505 39.9352 18.5856 38.869 18.6208 37.8078C15.8171 39.0652 12.7371 39.5127 9.68213 39.387C9.49622 38.9143 9.31534 38.4516 9.13446 37.9839C9.33544 37.7726 9.73238 37.3401 9.93336 37.1289C12.7622 37.0434 15.797 36.8623 18.249 35.2932C18.862 34.3477 18.465 33.1004 18.6108 32.0393C16.5959 32.9043 14.4404 33.4022 12.2597 33.543C11.3051 33.5631 10.2248 33.8196 9.40076 33.2061C9.18972 32.5422 9.13948 31.3855 10.1042 31.3855C12.9079 31.1793 15.9578 31.0988 18.3344 29.3889C18.7615 28.4132 18.5203 27.2514 18.6208 26.2104C15.8473 27.3419 12.7973 28.0712 9.80271 27.6789C9.04401 27.2464 9.44095 26.2606 9.47612 25.5918C12.6717 25.3906 16.1487 25.3252 18.8168 23.2984C18.0832 22.6295 17.3144 21.9355 16.3296 21.689C13.0586 20.6782 9.5314 20.658 6.18505 21.2716ZM39.6033 35.5849C39.1913 39.1406 39.4928 42.817 39.4526 46.4179C40.5278 47.9267 42.6884 48.0776 44.3716 48.4749C48.1652 48.9074 52.431 48.8722 55.6819 46.599C55.6769 46.1413 55.6718 45.231 55.6668 44.7734C53.0842 45.9402 50.2102 46.4431 47.3864 46.3425C46.2508 46.3827 45.874 44.3056 47.1301 44.1397C49.7981 43.8932 52.6471 43.8832 55.0036 42.4297C56.1592 41.7005 55.4407 40.0559 55.6718 38.9394C52.9033 40.2923 49.7831 40.584 46.7482 40.579C46.4015 39.8346 46.0197 38.3259 47.2859 38.3309C50.2604 38.0492 53.5816 38.0442 55.9331 35.8967C53.1194 33.6687 49.3108 33.4978 45.879 33.6537C43.7235 33.885 41.3318 34.1868 39.6033 35.5849Z" fill="#EB7824"/>
</svg>
