<svg width="60" height="60" viewBox="0 0 60 60" fill="none" xmlns="http://www.w3.org/2000/svg">
<path d="M28.0558 19.8036C29.6586 19.6414 31.28 19.748 32.8968 19.7387C34.0178 22.4997 35.3149 25.1912 36.3804 27.9753C36.3387 28.1282 36.2553 28.4339 36.2136 28.5868C32.2529 28.6794 28.2828 28.7026 24.3267 28.5683C25.4014 25.5896 26.5919 22.6155 28.0558 19.8036Z" fill="#EE7E01"/>
<path d="M43.8296 41.9423C45.4648 41.9145 47.1001 41.9098 48.7354 41.933C49.9676 44.8792 51.3991 47.7467 52.3765 50.7903C48.3046 50.8783 44.228 50.8969 40.156 50.7764C41.2168 47.7653 42.5927 44.8839 43.8296 41.9423Z" fill="#A4C519"/>
<path d="M21.7279 28.6239C23.4141 24.9873 24.8733 21.2489 26.5178 17.5893C29.0703 17.4873 31.6275 17.5661 34.1846 17.529C36.0098 21.1192 37.4227 24.904 39.0441 28.5868C40.0308 28.6146 41.0222 28.61 42.0135 28.7072C42.5324 29.1844 42.7455 29.8931 43.0558 30.5139C44.3622 33.5713 45.6639 36.6334 46.9749 39.6908C47.9848 39.7233 48.9947 39.7372 50.0092 39.7372C52.0707 43.6933 54.1136 48.8725 55.9574 52.9351C49.9351 52.9351 43.7785 52.8888 38.1732 52.9907C28.13 52.9954 18.0821 52.9815 8.03887 53C7.16333 53 6.2693 53 5 53C5.9265 50.8505 6.15812 50.1557 6.50088 49.4237C7.94622 46.218 9.21089 42.9336 10.735 39.765C11.7541 39.7465 12.7733 39.7279 13.797 39.7186C15.4879 36.0821 16.9379 32.3391 18.5963 28.6887C19.6386 28.6563 20.6809 28.6378 21.7279 28.6239ZM28.0558 19.8036C26.592 22.6155 25.4014 25.5896 24.3267 28.5683C28.2828 28.7026 32.2529 28.6794 36.2137 28.5868C36.2554 28.4339 36.3387 28.1282 36.3804 27.9753C35.315 25.1912 34.0179 22.4997 32.8968 19.7387C31.2801 19.748 29.6587 19.6415 28.0558 19.8036ZM20.0694 30.8382C18.8742 33.7983 17.2668 36.6149 16.47 39.7233C20.4539 39.7603 24.4425 39.7418 28.4357 39.7233C27.8288 36.5871 26.05 33.84 24.9845 30.8567C23.3446 30.8104 21.7047 30.815 20.0694 30.8382ZM35.9913 30.9169C34.5228 33.7242 33.3091 36.7029 32.2529 39.6908C36.1766 39.7279 40.1142 39.8159 44.0379 39.6723C44.1167 39.5565 44.2788 39.3156 44.3576 39.1952C43.2411 36.3833 41.9996 33.6223 40.8091 30.8428C39.2016 30.8335 37.5849 30.7085 35.9913 30.9169ZM27.5046 30.8938C28.1855 32.8718 29.5707 35.5263 30.4786 37.4163C30.2609 37.2542 30.6917 37.5738 30.4786 37.4163C31.8684 34.1736 32.3316 33.4787 33.3554 30.8938C30.4786 30.8382 30.0154 30.8428 27.5046 30.8938ZM12.0969 41.9561C10.9897 44.9348 9.27109 47.7004 8.59475 50.8227C12.5741 50.8598 16.558 50.8598 20.542 50.8274C19.8424 47.7097 18.1469 44.9348 17.0537 41.9515C15.3999 41.9052 13.7461 41.9006 12.0969 41.9561ZM19.634 41.9608C20.037 43.7813 20.9265 45.4398 21.6213 47.1631C21.7835 47.7838 22.2421 48.1868 22.798 48.4787C23.6596 46.3107 24.7112 44.2214 25.4524 42.0071C23.5114 41.882 21.5704 41.8913 19.634 41.9608ZM28.0558 42.0071C26.6568 44.8514 25.2856 47.7653 24.3823 50.8181C28.4172 50.8413 32.4613 50.9246 36.4962 50.7671C35.5466 47.7699 34.1476 44.9256 32.8875 42.0534C31.2893 41.8079 29.654 41.8542 28.0558 42.0071ZM35.4493 41.9978C36.1025 44.1381 37.117 46.1347 37.9277 48.2193C38.1408 48.2193 38.567 48.2146 38.7801 48.2146C39.5676 46.1254 40.633 44.1427 41.2862 42.0025C39.3406 41.8635 37.3903 41.8774 35.4493 41.9978ZM43.8295 41.9423C42.5926 44.8839 41.2167 47.7653 40.1559 50.7764C44.2279 50.8969 48.3044 50.8783 52.3764 50.7903C51.3989 47.7468 49.9675 44.8792 48.7353 41.933C47.1 41.9098 45.4647 41.9145 43.8295 41.9423Z" fill="#222222"/>
<path d="M20.0697 30.8382C21.7049 30.815 23.3448 30.8104 24.9847 30.8567C26.0502 33.84 27.8291 36.5871 28.4359 39.7233C24.4427 39.7418 20.4542 39.7603 16.4702 39.7233C17.267 36.6149 18.8745 33.7983 20.0697 30.8382Z" fill="#A4C519"/>
<path d="M35.9914 30.9169C37.5849 30.7084 39.2017 30.8335 40.8092 30.8428C41.9997 33.6223 43.2412 36.3833 44.3576 39.1952C44.2789 39.3156 44.1167 39.5565 44.038 39.6723C40.1143 39.8159 36.1766 39.7279 32.2529 39.6908C33.3091 36.7029 34.5229 33.7242 35.9914 30.9169Z" fill="#A4C519"/>
<path d="M12.0971 41.9561C13.7463 41.9005 15.4001 41.9052 17.0539 41.9515C18.1472 44.9348 19.8427 47.7097 20.5422 50.8274C16.5582 50.8598 12.5743 50.8598 8.59497 50.8227C9.27131 47.7004 10.99 44.9348 12.0971 41.9561Z" fill="#A4C519"/>
<path d="M28.0559 42.0071C29.6541 41.8542 31.2894 41.8079 32.8876 42.0534C34.1476 44.9256 35.5466 47.7699 36.4963 50.7672C32.4614 50.9247 28.4172 50.8413 24.3823 50.8181C25.2857 47.7653 26.6569 44.8514 28.0559 42.0071Z" fill="#A4C519"/>
<path d="M46.6924 26.9932H52.2514V29.3094H46.6924V26.9932Z" fill="#EE7E01"/>
<path d="M42.0598 24.677L42.0598 19.118L44.3761 19.118L44.3761 24.677H42.0598Z" fill="#EE7E01"/>
<path d="M22.1403 15.8752H16.5813V18.1915H22.1403V15.8752Z" fill="#EE7E01"/>
<path d="M26.7727 13.559V8L24.4564 8V13.559H26.7727Z" fill="#EE7E01"/>
</svg>
