<svg width="50" height="64" viewBox="0 0 50 64" fill="none" xmlns="http://www.w3.org/2000/svg">
<path d="M24.1948 25.1677C24.8644 25.3203 25.529 25.4877 26.1887 25.6699C26.1691 31.3415 26.1395 37.018 26.2035 42.6896C25.6423 42.4927 25.081 42.2957 24.5247 42.1037C24.3721 36.5651 24.9235 30.9919 24.2391 25.4828L24.1948 25.1677Z" fill="#EB7824"/>
<path d="M24.7331 45.3628C27.0421 44.772 29.6859 44.8705 31.7094 46.2441C33.1666 47.3469 33.8608 49.1094 34.747 50.6455C35.9187 52.7378 35.5052 55.3767 34.2842 57.3509C32.438 60.6495 28.9622 62.7616 25.3485 63.6084C22.8426 64.1352 19.8788 63.9727 18.003 62.0133C16.9297 60.7086 16.1322 59.207 15.2952 57.7497C14.2269 55.8444 14.7241 53.4468 15.8269 51.6695C17.7618 48.4645 21.1391 46.2687 24.7331 45.3628ZM18.9039 51.3298C17.5205 52.8117 16.2306 55.165 17.5353 57.09C18.5495 58.6162 19.1993 60.7431 21.1342 61.3339C23.6401 62.028 26.2987 61.1862 28.4945 59.9504C30.8872 58.5768 33.0337 56.2727 33.2356 53.4025C31.8817 55.6967 30.1487 57.8876 27.7067 59.079C26.7369 59.5369 25.4617 58.1584 26.471 57.3805C28.3911 55.8838 30.5425 54.3674 31.2859 51.9157C31.9654 50.2959 31.2859 48.0952 29.4693 47.6226C25.6144 46.5985 21.5231 48.5334 18.9039 51.3298Z" fill="#EB7824"/>
<path d="M28.5373 7.71482C28.6653 6.86309 29.8814 7.27172 30.4722 7.06494C30.7922 9.66442 30.8857 12.3476 30.4377 14.9422C29.8371 14.9323 29.2413 14.9225 28.6407 14.9077C28.3601 12.5248 28.2911 10.0977 28.5373 7.71482Z" fill="#EB7824"/>
<path d="M45.4302 7.58682C46.085 7.2225 47.3109 6.67603 47.621 7.71976C47.8229 10.6442 47.7589 13.608 47.6456 16.5422C47.4438 17.6155 46.1047 17.1724 45.4646 16.7983C45.4646 13.7261 45.5188 10.654 45.4302 7.58682Z" fill="#EB7824"/>
<path d="M28.3584 35.7526C28.8852 35.6689 29.412 35.5803 29.9388 35.4966C29.9732 37.5397 29.9831 39.5878 29.9388 41.6359C29.4218 42.0297 28.9049 42.4285 28.3879 42.8322C28.4519 40.474 28.4815 38.1108 28.3584 35.7526Z" fill="#EB7824"/>
<path d="M0.0516945 15.0305C-0.110773 13.7012 1.38098 13.8981 2.21793 14.1345C2.24255 19.3187 2.42963 24.5176 2.12439 29.692C1.3219 29.7166 0.0861568 29.9381 0.0664637 28.7812C-0.0270782 24.2025 -0.0123079 19.6091 0.0516945 15.0305Z" fill="#EB7824"/>
<path d="M24.2394 25.4829C24.9237 30.992 24.3723 36.5652 24.5249 42.1038C25.0812 42.2959 25.6425 42.4928 26.2037 42.6897C25.6966 43.2263 25.0862 43.443 24.3674 43.3494C23.8701 42.7242 23.939 41.9118 23.9193 41.1733C23.9243 36.7473 23.9341 32.3213 23.9144 27.9002C23.8996 27.078 24.008 26.2706 24.2394 25.4829Z" fill="#EB7824"/>
<path d="M33.0289 1.35882C32.9206 0.482484 33.8905 0.359398 34.4468 0C34.9933 0.635101 35.3871 1.38837 35.2542 2.25979C35.136 5.36637 35.4954 8.50248 35.0031 11.5894C34.2449 11.4564 32.9009 11.7568 33.0437 10.5506C32.9649 7.49321 32.9797 4.42109 33.0289 1.35882Z" fill="#EB7824"/>
<path d="M13.8003 23.4348C13.5542 21.4015 13.4852 19.2747 14.0169 17.2808C14.46 17.3152 15.3413 17.3841 15.7795 17.4186C15.9518 19.3584 16.0207 21.3178 15.8632 23.2576C15.745 24.3013 14.0908 24.4736 13.8003 23.4348Z" fill="#EB7824"/>
<path d="M36.4319 15.1883C39.9964 14.4695 43.487 16.3847 46.0028 18.7675C48.3807 21.1602 50.3402 24.4342 49.9512 27.9297C49.7937 30.2929 47.6865 31.7354 46.1751 33.2961C44.6243 34.9503 42.138 35.1127 40.0555 34.5859C35.8904 33.3404 32.4343 30.0762 30.7899 26.0736C29.9431 23.7351 29.7462 20.7073 31.7056 18.8561C33.1186 17.4727 34.4036 15.6757 36.4319 15.1883ZM34.566 19.2254C33.7143 20.1559 32.4884 21.0076 32.4737 22.4058C32.3309 24.8625 33.6848 27.1371 35.2651 28.9193C37.3132 31.1446 40.2524 32.9465 43.3885 32.5527C40.8383 31.5778 38.1305 30.5341 36.3581 28.3482C35.5064 27.5014 36.9784 25.9899 37.8302 26.8121C39.573 28.0922 41.242 29.6824 43.4673 30.0418C45.0132 30.4701 46.9825 29.9581 47.5684 28.3186C48.1345 26.1819 47.1647 24.0059 45.9782 22.263C44.0335 19.6783 41.1878 17.3742 37.8154 17.2807C36.4123 17.1921 35.4768 18.349 34.566 19.2254Z" fill="#EB7824"/>
<path d="M12.5096 26.8023C13.9915 26.2361 15.8082 26.3445 16.8618 27.654C18.2846 29.2836 20.8841 30.7163 20.3425 33.242C19.481 36.9787 16.7781 39.9524 13.9571 42.3943C12.0419 43.9648 9.84123 45.491 7.2959 45.6732C5.66138 45.8553 4.66688 44.3882 3.60838 43.4183C2.60403 42.3254 1.08767 41.3506 1.19106 39.6717C1.26491 37.3233 2.62373 35.2753 3.98747 33.4586C6.25217 30.6326 9.0732 28.0824 12.5096 26.8023ZM3.92839 37.855C3.64284 38.5541 2.81573 40.361 4.18932 40.2084C7.03497 39.588 9.26521 37.5252 11.3133 35.5756C12.0468 35.93 13.1349 36.1861 12.7066 37.2544C10.8406 39.4797 8.33471 41.129 5.65153 42.2269C6.46387 43.4036 7.85715 43.7088 9.0732 42.9014C13.2235 40.6761 16.9898 37.0132 18.2452 32.3607C16.916 31.1545 15.8427 29.6086 14.2919 28.6781C9.72307 29.9631 6.11432 33.754 3.92839 37.855Z" fill="#EB7824"/>
<path d="M28.3584 35.7529C28.4421 34.4039 29.4317 34.2463 30.5739 34.463C30.7314 37.1904 30.7708 39.9376 30.6182 42.6602C30.3228 43.9156 29.1215 43.2411 28.3879 42.8325C28.9049 42.4288 29.4218 42.03 29.9388 41.6362C29.9831 39.5881 29.9732 37.54 29.9388 35.4968C29.412 35.5805 28.8852 35.6692 28.3584 35.7529Z" fill="#EB7824"/>
</svg>
