<svg width="50" height="52" viewBox="0 0 50 52" fill="none" xmlns="http://www.w3.org/2000/svg">
<path d="M38.828 15.2897H40.4258V16.4587H38.828V17.562H40.4258V18.731H38.828V22.3404H36.9565L34.6561 18.731H32.1485V22.3404H30.2844V18.731H28.7236V17.562H30.2844V16.4587H28.7236V15.2897H30.2844V11.7021H32.1485L34.4342 15.2897H36.9713V11.7021H38.828V15.2897ZM35.8766 17.562H36.9713V16.4587H35.1739L35.8766 17.562ZM32.1485 17.562H33.909L33.2062 16.4587H32.1485V17.562ZM36.9713 19.279V18.731H36.6237L36.9713 19.279ZM32.1485 15.2897H32.4665L32.1485 14.7928V15.2897Z" fill="#222222"/>
<path d="M29.0842 1.06547C35.9228 -1.84906 44.507 1.44543 48.0354 8.14981C50.0224 11.5693 50.3706 15.7536 49.665 19.6204C48.6111 24.1557 45.5377 28.1235 41.5125 30.2012C37.3388 32.4087 32.1808 32.476 27.9328 30.4464C23.4062 28.3688 20.0775 23.9152 19.1489 18.8941C19.3532 18.7114 19.7571 18.341 19.9614 18.1583C20.2446 18.1871 20.8156 18.2401 21.0988 18.2689C22.1388 22.3569 24.5065 26.1997 28.2671 28.085C33.88 31.2785 41.4939 29.4605 45.2452 24.1028C47.9379 20.4284 48.6482 15.2582 46.9304 10.9826C45.143 6.20197 40.57 2.73918 35.6396 2.35442C33.6014 2.08028 31.6283 2.71513 29.6366 3.01331C28.4388 3.29707 28.0489 1.51756 29.0842 1.06547Z" fill="#222222"/>
<path d="M0.38973 26.6113C3.05633 26.6253 5.72758 26.5371 8.39884 26.6717C8.55734 28.8859 8.58999 31.1093 8.76714 33.3235C11.5456 32.1677 14.464 31.0582 17.5361 31.3507C19.1491 31.8149 20.3473 32.9382 21.3262 34.2519C23.191 36.4428 26.2725 34.9621 28.706 35.3427C31.2887 35.417 33.4191 37.399 34.1278 39.8082C37.4284 39.3393 40.5985 38.2717 43.8245 37.4455C45.3815 37.1252 47.2976 36.9534 48.5283 38.1742C49.8896 39.4554 50.1786 41.4468 49.9082 43.2199C46.0016 45.5687 41.6847 47.1098 37.4051 48.6277C34.8504 49.4679 32.2863 50.3499 29.6291 50.7908C26.6874 51.2782 23.7644 50.4613 20.93 49.7696C16.8275 48.7577 12.8323 47.3698 8.74384 46.3114C8.72519 47.834 8.62261 49.3519 8.39884 50.8605C5.61569 50.8605 2.80926 51.385 0.0587546 50.7491C-0.0391448 43.7398 0.058733 36.7306 0.00745234 29.7214C-0.0251808 28.6677 0.0400889 27.6093 0.38973 26.6113ZM2.25448 28.8905C2.2032 35.5377 2.19388 42.1895 2.25915 48.8366C3.6344 48.8645 5.01432 48.8645 6.3989 48.8366C6.48748 42.1895 6.42687 35.5423 6.4222 28.8951C5.0283 28.8348 3.63906 28.8348 2.25448 28.8905ZM8.78578 36.2804C8.31493 38.8102 8.5014 41.4189 8.77645 43.9673C14.5991 45.5827 20.3146 47.6529 26.2865 48.6881C28.319 49.129 30.3376 48.4096 32.291 47.9082C37.5309 46.33 42.7755 44.5707 47.6239 42.0084C48.16 40.6809 46.7661 38.9262 45.3256 39.3811C41.5821 40.2445 37.9272 41.4885 34.1138 42.0456C31.932 43.4474 29.4006 44.6172 26.7713 44.6357C23.1584 43.8234 19.6526 42.6026 16.049 41.7531C15.8765 41.5257 15.5408 41.0661 15.3684 40.8387C15.5269 40.523 15.8392 39.8871 15.9977 39.5714C19.8205 40.2445 23.4567 41.7021 27.2561 42.4819C28.8971 42.2916 30.375 41.4792 31.9041 40.899C31.8528 38.5409 29.4286 37.1716 27.2701 37.4269C25.2842 37.6497 23.191 37.9979 21.3356 37.0323C19.3869 36.3129 18.8135 33.472 16.5059 33.5649C13.7507 33.5417 10.8603 34.4607 8.78578 36.2804Z" fill="#222222"/>
<rect x="19.1489" y="2.12793" width="2.12766" height="3.19149" fill="#222222"/>
<rect x="19.1489" y="10.6387" width="2.12766" height="3.19149" fill="#222222"/>
<rect x="22.3403" y="6.38281" width="4.25532" height="3.19149" fill="#222222"/>
<rect x="14.8936" y="6.38281" width="3.19149" height="3.19149" fill="#222222"/>
</svg>
